<mxfile host="app.diagrams.net" modified="2023-05-08T08:25:52.428Z" agent="Mozilla/5.0 (Windows NT 10.0; Win64; x64) AppleWebKit/537.36 (KHTML, like Gecko) Chrome/112.0.0.0 Safari/537.36 Edg/112.0.1722.68" etag="8EcI2a2KktBXLlT9ewR-" version="21.2.9" type="github">
  <diagram name="第 1 页" id="oyyRL3EKb9Zoqq3U5nI3">
    <mxGraphModel dx="1440" dy="772" grid="0" gridSize="10" guides="1" tooltips="1" connect="1" arrows="1" fold="1" page="1" pageScale="1" pageWidth="2336" pageHeight="1654" math="0" shadow="0">
      <root>
        <mxCell id="0" />
        <mxCell id="1" parent="0" />
        <mxCell id="uut4hfN15O6eYL7KADeR-7" value="ML-100k" style="text;html=1;strokeColor=none;fillColor=none;align=center;verticalAlign=middle;whiteSpace=wrap;rounded=0;" parent="1" vertex="1">
          <mxGeometry x="144" y="289" width="60" height="30" as="geometry" />
        </mxCell>
        <mxCell id="uut4hfN15O6eYL7KADeR-8" value="ML-100k" style="text;html=1;strokeColor=none;fillColor=none;align=center;verticalAlign=middle;whiteSpace=wrap;rounded=0;" parent="1" vertex="1">
          <mxGeometry x="439" y="289" width="60" height="30" as="geometry" />
        </mxCell>
        <mxCell id="uut4hfN15O6eYL7KADeR-9" value="ML-100k" style="text;html=1;strokeColor=none;fillColor=none;align=center;verticalAlign=middle;whiteSpace=wrap;rounded=0;" parent="1" vertex="1">
          <mxGeometry x="732" y="289" width="60" height="30" as="geometry" />
        </mxCell>
        <mxCell id="uut4hfN15O6eYL7KADeR-10" value="ML-100k" style="text;html=1;strokeColor=none;fillColor=none;align=center;verticalAlign=middle;whiteSpace=wrap;rounded=0;" parent="1" vertex="1">
          <mxGeometry x="1024" y="289" width="60" height="30" as="geometry" />
        </mxCell>
        <mxCell id="uut4hfN15O6eYL7KADeR-11" value="Music" style="text;html=1;strokeColor=none;fillColor=none;align=center;verticalAlign=middle;whiteSpace=wrap;rounded=0;" parent="1" vertex="1">
          <mxGeometry x="274" y="289" width="60" height="30" as="geometry" />
        </mxCell>
        <mxCell id="uut4hfN15O6eYL7KADeR-12" value="Music" style="text;html=1;strokeColor=none;fillColor=none;align=center;verticalAlign=middle;whiteSpace=wrap;rounded=0;" parent="1" vertex="1">
          <mxGeometry x="562" y="289" width="60" height="30" as="geometry" />
        </mxCell>
        <mxCell id="uut4hfN15O6eYL7KADeR-13" value="Music" style="text;html=1;strokeColor=none;fillColor=none;align=center;verticalAlign=middle;whiteSpace=wrap;rounded=0;" parent="1" vertex="1">
          <mxGeometry x="855" y="289" width="60" height="30" as="geometry" />
        </mxCell>
        <mxCell id="uut4hfN15O6eYL7KADeR-14" value="Music" style="text;html=1;strokeColor=none;fillColor=none;align=center;verticalAlign=middle;whiteSpace=wrap;rounded=0;" parent="1" vertex="1">
          <mxGeometry x="1154" y="289" width="60" height="30" as="geometry" />
        </mxCell>
        <mxCell id="uut4hfN15O6eYL7KADeR-15" value="&lt;font style=&quot;font-size: 18px;&quot;&gt;(a) Recall@10&lt;/font&gt;" style="text;html=1;strokeColor=none;fillColor=none;align=center;verticalAlign=middle;whiteSpace=wrap;rounded=0;" parent="1" vertex="1">
          <mxGeometry x="146" y="322" width="188" height="30" as="geometry" />
        </mxCell>
        <mxCell id="uut4hfN15O6eYL7KADeR-16" value="&lt;font style=&quot;font-size: 18px;&quot;&gt;(b) Recall@20&lt;/font&gt;" style="text;html=1;strokeColor=none;fillColor=none;align=center;verticalAlign=middle;whiteSpace=wrap;rounded=0;" parent="1" vertex="1">
          <mxGeometry x="439" y="322" width="188" height="30" as="geometry" />
        </mxCell>
        <mxCell id="uut4hfN15O6eYL7KADeR-17" value="&lt;font style=&quot;font-size: 18px;&quot;&gt;(c) MRR&lt;/font&gt;" style="text;html=1;strokeColor=none;fillColor=none;align=center;verticalAlign=middle;whiteSpace=wrap;rounded=0;" parent="1" vertex="1">
          <mxGeometry x="720" y="322" width="188" height="30" as="geometry" />
        </mxCell>
        <mxCell id="uut4hfN15O6eYL7KADeR-18" value="&lt;font style=&quot;font-size: 18px;&quot;&gt;(d) NDCG@10&lt;/font&gt;" style="text;html=1;strokeColor=none;fillColor=none;align=center;verticalAlign=middle;whiteSpace=wrap;rounded=0;" parent="1" vertex="1">
          <mxGeometry x="1010" y="319" width="188" height="30" as="geometry" />
        </mxCell>
        <mxCell id="kDJj-V9BMYjVGgZ6bgmU-1" value="" style="shape=image;verticalLabelPosition=bottom;labelBackgroundColor=default;verticalAlign=top;aspect=fixed;imageAspect=0;image=data:image/png,iVBORw0KGgoAAAANSUhEUgAAAF0AAACUCAYAAADxliW/AAAFsElEQVR4nO3cP0gbfRzH8Y8Pz3BrlKPEgktwig6BdBHRReJQJDxTccskLg6PLhbpXij4SEsXh1K0kHZ6uCFC06EUxUEDN2im9FxEMxztbXKdfAYfr8bEGP9cPjnzeU1tcinHu8fP3LW/b8/p6ekppK3+YJ9AN1J0AkUnUHQCRSdQdAJFJ1B0AkUnUHQCRSdQdAJFJ1B0AkUnUHSCP9kncFeVSgVra2twHAeZTAa5XO7KY13XRaFQwO7uLjzPAwDEYjE8efIET58+hWmabTnnUKN/6+m51efGW/zHrHw+jy9fvsD3/WuPdV0XL1++RLVaBQAkEgkAgOM4KBaL2Nvbw+LiYlvCR/JKd10Xq6urKJfLMAwD8Xg8iHmV169fo1qtIh6P18S1bRtv3rxBtVrF+vo65ufnQz//SK7phUIB5XIZyWQSz58/x/DwcNPjK5UKHMcBAMzOztZczalUCtlsFgCwv78f3klfEMno/f39yOVyWFpawuDg4LXHl0olAGdLSqPjR0ZGAAC+72Nra+t+T7aBSC4vmUzmRscfHBwA+L2OX2aaJmKxGDzPw+Hh4Z3P7zqRvNJvqpUftL29vQCAX79+hX063RG90yg6gaITKPr/Tk5OAJzdoYatK6JfvPtsxHXd4OZqYGAg9PPpiuj9/f0AzqK7rlv3/vb2NoCzqzyVSoV+Pl0RPZPJBMvG6upqTXjbtmFZVnBcO/SE+V+lw3rgVSwWsbm5Gfz+58+f8DwPsVgs+L5tGAaWlpaCY86fsfi+D8Mw8PjxY5ycnATLSjqdbstzFyDkO9JWnxbe1I8fPxquz57nBY9sDcOoeS+VSmFubg5fv37F/v5+8PlEIoF0Oh08f2mHUK90aawr1vROo+gEik6g6ASKTqDoBIpOoOgEik6g6ASKTqDoBIpOoOgEik6g6ASKTqDoBIpOoOgEik6g6ASKTqDoBIpOoOgEik6g6ASKTqDoBIpOoOgEkZwNAACWZQU7Ks63tCQSCYyPj2N0dLThZzplyE6oOzF6rL9u9bnT7L9N319YWGg4LOdcLper27TVbMgOgLo5MGGK5JXu+z6mpqYwMTERRKpUKlhZWYHnefj48WNddA3ZuaO3b99ienq65qocHBwMQl+e26IhOyHq6+tr+HqnDdl5UNHP9/cDwKNHj4JftzpkB4CG7NzU+fIQj8drrmgN2QmJbdvBMjI5OUk+m+YeRHTXdfHhwwcAQDKZbNse/9t6ENHX19eDr4MzMzPs07lW5KMvLy+jVCrBMIw73dxoyE6LLgafm5u7MriG7NyTy8GbDcfRkJ17cJPgQJcN2QnjgZdt23j16hUA1AzVuaxrh+xc97Twri4O1blMQ3akRiTX9KhTdAJFJ1B0AkUnUHQCRSdQdAJFJ1B0AkUnUHQCRSdQdAJFJ1B0AkUnUHQCRSdQdAJFJ1B0AkUnUHQCRSdQdAJFJ1B0AkUnUHQCRSeI5BQM4GzeS6lUqtm8lUwmNe8lLJr30kTP399u9bnTf8abvu95Hp49e4aRkZEg0sWolmVp3st9e/fuHbLZbM1VaZomxsbGAKBuH5LmvYRI814Ivn//DqB+q7nmvYQkn8+jWCwCQN32xE6b9xLZr4zv378P1umjoyP4vo94PI7JycmOHz0S2ehHR0d1Axaq1Sp2d3dhmmZb9vjfVmSjX9yC7roubNvG58+fUS6X4ThOSzMDWB7Emm6aJjKZDBYXFxGLxeD7PjY2Nm70Z2jeyy2ZpomhoSEAtT88Ne8lZMfHx3Wvad7LHeXzebx48aLhTUw+nw+u5nQ6HbzeXfNeQnj2YlkWPn36BADB3Bbg99dGoPHslk6a9xK56ACwtbWFnZ0dOI4TPGdpZZS3bdvBvJfzvyDNe+kSkVvTHwJFJ1B0AkUnUHQCRSdQdAJFJ1B0AkUnUHQCRSdQdAJFJ1B0AkUnUHSC/wBF7/z6Pf3c/QAAAABJRU5ErkJggg==;" vertex="1" parent="1">
          <mxGeometry x="1274" y="135" width="59.41" height="94.55" as="geometry" />
        </mxCell>
        <mxCell id="kDJj-V9BMYjVGgZ6bgmU-2" value="" style="shape=image;verticalLabelPosition=bottom;labelBackgroundColor=default;verticalAlign=top;aspect=fixed;imageAspect=0;image=data:image/png,iVBORw0KGgoAAAANSUhEUgAAAk8AAAG2CAMAAAEma6KGAAAAAXNSR0IArs4c6QAAAARnQU1BAACxjwv8YQUAAABmUExURf////n5+WxsbFlZWcXFxenp6WRkZKurq9fX12BgYPHx8b+/v1xcXNvb26Ojo3l5efj4+Pz8/IuLi4qKinh4eAAAAI2NjcAAANnZ2Xp6esLCwvX19WhoaACwUABwwDg4OCAgIAAAAN1mxrcAAAAidFJOU////////////////////////////////////////////wAN0MNxAAAACXBIWXMAABcRAAAXEQHKJvM/AAAX4ElEQVR4Xu3dbXPayrKGYapEERcu+QtOnU97e///X3mmRzegAYluKYK04+daWbYz7ohR85gXo0G7vA4dX/ypX/Xj7/pxtfE/16Ye458f3q9fe/7P8PXYiln98E0ddrvyg7PJpj7rx002NdCmBs6mune7Bt9C6qb4eqRPvYNVtk191nucTTb1tduV275NNjXQpgbOprr3Y/maHwFH3VR/L/UOVtk2Ve4mnvmD8x+z+69hBI83NdCmBs6mhodq/GQM6qb6uil+MgYrfnDqpuZnNXx7bGpT49p/ZFPlicnoB2dcu3hT/a5bt6nxt8//3Pzbm9qsV4fefnLktbrdr3INbmS7LclzDD+Dm/jhm1p0Y/V4U7vdic8B3qYW0Kb68ocHaY66Kb4eKRtYrG6Kr//QD99U+RmM/+Q83tQi2lRpOz8BnropnteM7NnQEnVTfP2HvuemFtzaPN7U+66//cG5f1x+9nhTE7SpeYebH5y6qYnfDcz+cmD+B6du6sGshu87xqX/zqaOfC7Gpcs31e1Ow0s5ZlzqbWrq+yNeqff9Ea/U+/6IV+p8f/x00CldMiv52YZbwMS/axj/mu31Zi5dk7rzDSb1Ve67yv+pJnWwx6H11x/bTqreBVQMOGYuXZO6o0mtmJTdzXT1tSB1aoIm9e9Myp4eDU+REk2q/oKiPF1ONakrTeqOJrViUvw+58M+BI+3CmJGxdu+7/0/uvo0KQ8zKhhwNJf+YXcy9WY90aTqc5lsk7rSpO5oUismVe9meu5m+v5t5k/9BWwVfF18fDfDKxSPrbibYUbFbvjdcMU3pzGjggGHJvXvTKr+fsp72s6Mihd1qtvth19ZZ5rUxfMmxb8t+OaE2KTYZKFJ3UgzKbubGRaJvmpS/NuCQvzVTvFvCwqhSf07kzrYayBTdzNssvibnRKRH89uoLrhZiqNY5nP9SiqJM6TSjcxEZHkbN1zrrsZ0y9YILIAD9ALBhax1xvWLBxyMKOCgQyYUcFABsyoYCADZlQwkAEzKhjIgBkVDGTAjAoGMmBGBQMZMKOCgQXen3Ufw4wKBsL6MqXuOU+xmFHBwALD85gn3Psxo4KBDJhRwUAGzKhgIANmVDCQATMqGMiAGRUMZMCMCgYyYEYFAxkwo4KBJX51z3iE/qed6nf9cDcTPjgjhBkVDDy0v2nMU55gKehxzKhgIANmVDCQATMqGMiAGRUMZMCMCgYyYEYFAxkwo4KBBcpj9OfcejKjgoGw+mymTKqu73vW3cz4qPP5P3U+KPd7ZVKjZfxbYUYFAxkwo4KBDJhRwUAGzKhgIANmVDCQATMqGMiAGRUMZMCMCgYyYEYFA4ucb9A3xowKBhYpz2aGL7h/2AgzKjji3DHMAb+6Z/RJQY9jRgUDGTCjgoEMmFHBQAbMqGAgA2ZUMJABMyoYyIAZFQwsUJ7NsJh1Y8yoYCDMns3YGnKezdwtd+LP8C5sJv6MhxkV3I846nzQf70Hns0wpQWHDr8gU0xJk3IxJU3KxZQ0KRdT+uGTijxEZ0qvm9TlBp77hylMye5mmFHB/cOkP3w20/V7XjB6gCn9U5niH9s/3xDb/PuTYpOFJvUYmyw0qcfYZKFJmXK7OXM/wyaLF0/KlqjY/czUa0ZssthyUvzbgroJdvTbzOFvbLJ49aQeYJOFJvUYmyw0qcfYZKFJPcYmi9dPanaJCpss/kKn2ofsV2yy+AuTKp2KPMsSERGRn+VzWGNUH1BNPqqSys7YZP0p/9u7Wf+6PK76/ZPRg0a3e7cXbA+7/a/y6PN0eX30J7/D0aJ9V6OC1KggNSpIjQpSo4LUqCA1KkiNmvBrVx9pHse/7lSjJpTnL31p0qHfHa6PzDnqJCN++93gW5uYbVT/y57JvB9P1jJkThS9afCtTSzadzUqSI0KUqOC1KggNSpIjQpSo4LUqBvl6QsvLvABalTryKswRT188nIMZd6nMOOD/6/e7Fv7LT7sp5/C9HbKYzuo87N8sg9QooLUqCA1KkiNClKjgtSoIDUqSI0KUqMm2Hs0lEfozfpVNWpCaZQdUDZ8BTVqStf1u/1+b89mztSoIDUqSI0KUqOC1KggNSpIjQpSo24cuy8+28Opr29xQD69afCtTUztux08Zg8zj/1p+OJMjWodh5er+s7eMqK4vLqgRgWpUUFqVJAaFaRGBalRQWpUkBoVpEZNOfCu/icdzWJm991eXLBO1ZPtQI2aYC9X9fU58fV8EWpUkBoVpEYFqVFBalSQGhWkRgWpUUFq1A1ehfmsx+XrVZhqat/Pr8LUj8MXg3WN4i1Tx/jOluhNg29tYrJRLBoq6hPiP3wVhuaM2TBvM9uo9evQmwbf2sSifVejgtSoIDUqSI0KUqOC1KggNSpIjZpQHnXag86P8WNzNWpCac/wKsxw8F2lRk04XZbx/+laGJozZsP0plHr16E3Db61iUX7/h0bxSWO1fql1KigDRvF7Bo2zvTGbJjeNGx8JS6wYeNc4litX0qNClKjgtSoIDUqSI0Kmtr342H3bg/K65u6Xp/AqFG3zqc7qQ/KWeZR/bY3nZr5M/1WV2X4esrsKzuTNr1pvL3dbjbyx7Y2/UZbZXtc4pj9Ay6wUbczbea9gj+H5y01VsX1Hcn4PI3ZNWyc6Y3ZMLNr2PhKXGDDxrnEMRvmAhs2Puvxvt9Qo4LUqCA1KkiNClKjgtSoIDUqSI2a8FEeaA5HkI0emfN5GrNr2DjTG7NhZtew8ZW4wIaNc4ljNswFNmx81uy+l/bUV2FG5yF0ztjI7Bo2zvTGbJjZNWx8JS6wYeNc4pgNc4ENG59HD+7U053s3/e/+LuIiIiIiIjIP+3Q1TfmPnZdfYO7OiZ37IS75ZMtQmvf710a9guoEqj66yf1aV7p0770yc5LzF8H/NrqZ6IHY7xnTfnZs0/Rww3+bVP7vh+dvrk06XJoufoUoz7FqE8x6lOM+hSjPsWoTzHqU4z6FKM+xahPMepTjPoUoz7FqE8x6lOM+jSF11m67nL4ofo04XN4l7/xi1Lq070jixcv74hYZO4Tx/k2+NYm5vb9vMiz/H9988g+L1rT4FubmM0T77RZmnT50VOeJnT2olRX/uu/xe04rWnwrU0s2Xf1KUZ9ilGfYtSnGPUpRn2KUZ9i1KcY9SlGfYpRn2LUpxj1KUZ9ilGfYtSnFu/fXpcijNcjqE8tO85+rz41pva9hMleRui7rh8+QH1qlTxZn4avxusR6isP+4Qf3v7K6y2ny5qWmz7xOSNa0+Bbm5jcd/tZ2+/Lj1z94WNQfYpSn2LUpxj1KUZ9ilGfYtSnGPUpRn2KUZ9i1KcY9SlGfYpRn2LUpxj1KUZ9mmDvRFM/XalPEzjOXn0azO27vaN97dP4977DKbBSojUNvvXnZl5HMOd1QMW3eJ8sWtPgW5uY3XfWlRXqUzG77/WFlq783F1XlqlPMepTjPoUoz7FqE8x6lOM+hSjPsWoTzHqU4z6FKM+xahPMepTjPoUoz7dOHT1PKa70+du/3X9xa/61LqcGff9pHUbmNp3W48wvCalPp1N7Xv5QbM+9cfhV+PXn7tv93pLXdSxyZ+ZPNkJSbrClrlcTresPLXqeZbrq8EnS5Rux4sl+64+xahPMepTjPoUoz7FqE8x6lOM+hSjPsWoTzHqU4z6FKM+xahPMepTjPo04dh98bl+MurThPPx44fL4ePq04Qj6zaOvfpk5vb9el6SUZ+Gt4xKidY0eClmA+55SXp70YUh5WkK5yUZLW9Rn4LUpxj1KUZ9ilGfYtSnGPUpRn2KUZ9i1KcY9SlGfYpRn2LUpxj1KUZ9ilGfbrC+pfs6an0Lpvb9sr5l12ndBqb2/by+xQ64//M+/WcC39oQrWnwrU1M7bu9flD7VH8/Pnwwv/s3OwXIsj89rWkMr5FsidY0eLFkAw/XtxT1NYQ/XN9Caxo2/t97tX4dWtPgW5uY2ve6vmX/XtpVX737w9txWtOwcXozVuvXoTUNvrWJJfuuPsWoTzHqU4z6FKM+xahPMepTjPoUoz7FqE8x6lOM+hSjPsWoTzHqU4z6NOEwvBPNr93h/OtM9WkK5yW5/Aq4UJ/unc9LcupKw6A+3Zs8LwmvbSxDaxr2Ugy9GbOXZ1aiNQ1eLNnA/PoWW1R2GL669onPy9Caho3Tm7Favw6tafCtTczu+2bnJaE1DRunN2O1fh1a0+Bbm1iy79+xT1xgo/6DhdSnGPUpRn2K2a5PTK5h40yuYeP0ZsyGV+ICGzbOBTbqP1hIfYpRn2LUpxj1KUZ9ilGfYtSnGPUpRn2KUZ9i1KeYqX0/2nHR9kpC/2knk7hQn1rX4+yXrG9hcg0bZ3ING6c3Yza8EhfYsHEusFH/wUJT+17CNKzbKMHqu+76ulR/d7qO65/ZM7EzuYaN05uxt7e7zUb+2Na4wEYZnl41Usa5xLH5s66U/Z7J09Cn4QUXXk74t/LEJY7Z8KypfT/xGguvS6lPxeS+28/afn+yt1yrL7tAfYpRn2LUpxj1KUZ9ilGfYtSnGPUpRn2KUZ9i1KcY9SlGfYpRn2LUpxj1aQLnJTl9RY/3ZXING2dyDRtndmM2vBIX2LBxLrBh41zimA3Pmt3383lJdr+C61uYXMPGmVzDxpndmA2vxAU2bJwLbNg4lzhmw7Pm9v18XhL1aTC37+fzklx+S178fojJNWycyTVsnNmN2fBKXGDDxrnAho1ziWM2PI8e3OK8JOM2yZR6XpIvtUlERERERERERERERERE5B90tPfOfO/2/PXyVX9d4ikSdqhvxfpOet4vhxooT7LCfrg96oeTde5OJ1sIa8fY7cvn0TL0i08OFZIfJnZQ0/Gcp+Fu7lTXoJ9vrcqt1+V9f89mDzqTf1r0ej/VA36Hj5YkO6D11zmLR+VJBuHrvT/fr73bfd7R/ma3VfX+jpSNKU8/07Oud+XpZ1KeZEvKk2xJeZItKU+yJeVJtqQ8yZaUJ9mS8iRbUp5kS8qTbEl5ki0pT7Il5Um2pDzJlpQn2dLi6723lQl7jiPf7d6/WOhyQ3n6mZZe78fbhS6jcyyOKU/r8PaxLsrTWXq9s9CFT8frQpcbv+2Ei7IYcXFRns7i26fHC10udPu0DnFxUZ7O4jxNLXT5uL/XU57WIS4uytNZfr3XFS11oYs9FLeFLlMPyZWndYiLi/J0nnW9K0/rEBcX5ekoT7kQFxfl6ShPuRAXF+XpKE+5EBcX5ekoT7kQFxfl6ShPuRAXF+XpKE+5EBcX5ekoT7kQFxfl6ShPuRAXF+XpKE+5EBcX5ekoT7kQFxfl6ShPuRAXF+XpKE+5EBcX5ekoT7kQFxfl6ShPuRAXF+XphK/346H74qDMegzUV9fZUXTXr1rK0zrExUV5OtHr/eNgH8+HZV7PsjF3vg3laR3i4qI8neD13h+aw8b3lxRdv2opT+sQFxfl6QSv93ZZy+Djsgjv+tVFXd+ytxUP+hD/8BZf3/L2YDN/60MRzNPRTld2u5DlfO83/upMt0/rEBcX5elEr/f9cP67EidbhnCy26OTnb6Fr/R4fCPExUV5Os+63pWndYiLi/J0lKdciIuL8nSUp1yIi4vydJSnXIiLi/J0lKdciIuL8nSUp1yIi4vydJSnXIiLi/J0lKdciIuL8nSUp1yIi4vydJSnXIiLi/J0lKdciIuL8nSUp1yIi4vydJSnXIiLi/J0lKdciIuL8nSUp1yIi4vydJSnXIiLi/J0ll/vdaHL+fjeva1u+TrcHU6nPK1EXFyUp7P4ev9o3n98bjmC8rQScXFRns7S6/1mocvccinlaSXi4qI8naXX++OFLle2vuVN/y3+j7i4xv8mx3+L1rdcHB8vdLnQ7dM6xMVFeTqLr/eJhS6fejy+GeLiojydZ13vytM6xMVFeTrKUy7ExUV5OspTLsTFRXk6ylMuxMVFeTrKUy7ExUV5OspTLsTFRXk6ylMuxMVFeTrKUy7ExUV5OspTLsTFRXk6ylMuxMVFeTrKUy7ExUV5OspTLsTFRXk6ylMuxMVFeTrKUy7ExUV5OspTLsTFRXk6ylMuxMVFeTrR670//LJj6a4H9r53n6fyqb9/q+hKeVqHuLgoTyd4vR8tTuPDfD8+d6chT9MLEpSndYiLi/J0gtf7zTKEo2Wp5mnfmftMKU/rEBcX5elEb5+GILFMari1qnkaHK5fQutb1v1HXFxWm1H0dmRYwtIsZHHyxBeyCHFxUZ5O+Hrvz/drtqyl4vFTcb9cSnlaibi4KE/nWde78rQOcXFRno7ylAtxcVGejvKUC3FxUZ6O8pQLcXFRno7ylAtxcVGejvKUC3FxUZ6O8pQLcXFRno7ylAtxcVGejvKUC3FxUZ6O8pQLcXFRno7ylAtxcVGejvKUC3FxUZ6O8pQLcXFRno7ylAtxcVGejvKUC3FxUZ6O8pQLcXFRns7i631uocsN5Wkd4uKiPJ2l1/vsQpcbytM6xMVFeTpLr/fZhS436noEWYy4uChPZFggsfj26fFClwvdPq1DXFyUp7M4T48XulwoT+sQFxfl6Sy/3vd2AsX7hS43lKd1iIuL8nSedb0rT+sQFxfl6ShPuRAXF+XpKE+5EBcX5ekoT7kQFxfl6ShPuRAXF+XpKE+5EBcX5ekoT7kQFxfl6ShPuRAXF+XpKE+5EBcX5ekoT7kQFxfl6ShPuRAXF+XpKE+5EBcX5ekoT7kQFxfl6ShPuRAXF+XpKE+5EBcX5ekoT7kQFxfl6USv93ZZy4cd5nuwU7fo/C3bIi4uytMJXu93y1qK+hedv2VbxMVFeTrB6/1mWcvus+u6mrD587e8bH1L/5+Yfv8NltwQFxfliSxa39Iua8H1LBt/93wb5MVD9e6/MVS/GHFxUZ5O9HqfWNaiPD0BcXFRnk74er+ev6XcRtlfvmq2Mpy/hbx4qFaenulZ17vytA5xcVGejvI0h+oXIy4uytNRnuZQ/WLExUV5OsrTHKpfjLi4KE9HeZpD9YsRFxfl6ShPc6h+MeLiojwd5WkO1S9GXFyUp6M8zaH6xYiLi/J0lKc5VL8YcXFRno7yNIfqFyMuLsrTUZ7mUP1ixMVFeTrK0xyqX4y4uChPR3maQ/WLERcX5ekoT3OofjHi4qI8HeVpDtUvRlxclKez/Ho/Hr66y+k2jqfyl6klCcrTOsTFRXk6S6/34wcHao4y1KxSgPK0DnFxUZ7O0uu9P7QLE4p+WJnQUp7WIS4uytNZer0TpGZhwuFvrm8pl0JePPyDN/LisdJ9b4tiXvOnzu0Hnr/lfiHezTKFSrdP6xAXF+XpLL7e9xaoGic738bBHpif9PhpM8TFRXk6z7relad1iIuL8qX7/nTK0xyqX4y4uChXnp6AnnmoVp6eSXmaQ/WLERcX5cpTAC1zUa48+ah+PuVpDtUvxq65KFeeAmiZi3LlyUf18ylPc6h+MXbNRbnyFEDLXJQrTz6qn095mkP1i7FrLsqVpwBa5qJcefJR/XzK0xyqX4xdc1GuPAXQMhflypOP6udTnuZQ/WLsmoty5SmAlrkoV558VD+f8jSH6hdj11yUf9883S9rqe8Rve/KV1+HuxUuytM67JqL8m+bp4llLR+2Tmo/cWymUZ7WYddclH/XPPX1wN6SnvMtVPHRlQ/POH8LLXNRrjz5qH7+vgev94llLZ/XZZwf45gNbH3LWrTM9fbW97asgp55rNT+o2eeofhlmB275qI8vu+ltvxh3zyX6Sz5781W6QTzdLxd1mKLEa6a+8FKt0/rsGsuyr/r7dPNspb6t+rTYvWpx+NbYddclH/bPC2lPK3DrrkoV54CaJmLcuXJR7Xy9AjlypOPauXpEcqVJx/VytMjlCtPPqqVp0coV558VCtPj1CuPPmoVp4eoVx58lGtPD1CufLko1p5eoRy5clHtfL0COXKk49q5ekRypUnH9XK0yOUK08+qpWnRyhXnnxUK0+PUK48+ahWnh6hXHnyUZ0wT/3h1+g48o+THQRcV7q0lKd12DUX5d8+T0eL0/jA3+J94oRAytM67JqL8m+fJxYmjM/fcrwc/DuiPK3Drrko//63T3cLXT4mV0x9/ZYf6X8EIOg4nKvlcsaW96+7pVIiC+xtfbndJL2X26hTZ74+7h9AiYiIiIiIiIiIiIh8O7vd/wNrLTN/QN0G2QAAAABJRU5ErkJggg==;" vertex="1" parent="1">
          <mxGeometry x="94.00169073807561" y="85.91736572265624" width="280" height="207.52" as="geometry" />
        </mxCell>
        <mxCell id="kDJj-V9BMYjVGgZ6bgmU-3" value="" style="shape=image;verticalLabelPosition=bottom;labelBackgroundColor=default;verticalAlign=top;aspect=fixed;imageAspect=0;image=data:image/png,iVBORw0KGgoAAAANSUhEUgAAAk8AAAG2CAMAAAEma6KGAAAAAXNSR0IArs4c6QAAAARnQU1BAACxjwv8YQUAAABmUExURf////n5+WxsbFlZWcXFxenp6WRkZKurq9fX12BgYPHx8b+/v1xcXNvb26Ojo3l5efj4+Pz8/IuLi4qKinh4eAAAAI2NjcAAANnZ2Xp6esLCwvX19WhoaACwUABwwDg4OCAgIAAAAN1mxrcAAAAidFJOU////////////////////////////////////////////wAN0MNxAAAACXBIWXMAABcRAAAXEQHKJvM/AAAYb0lEQVR4Xu3dYVPizNLGcaqg0MKKb3DreXWO5/t/ymd68gcmmKQ72cC2ev3uvdUdesOkuUSQDNnlddzzxd96qR//1I+rtf/8W2/q/wxft7bf1PHt9rXH2VSlTfXmN3Xc7co3ziab+qgfN9lUT5vqOZvav9kt+BpSN8XXjS71DlbZNvVRf+JssqnP3a7c922yqZ421XM2tX87la+7kLopvm5Nz+o/hq8H6qb4uvXETf3XMIKnbar8mPjyjbNyU2PfOCs31Vu0qf7i1vfZVFu7fFP9Q7XXrrM/tbartV3dFN8ZqBe/fr34L2fVXvxLNlWemDTfOFO1mLq4/+fdbr/Vpno/e1Ob9erY2XeOPNd+91JuwY1st6Xvr0/7JrSpuKdtatGd1fymdrsznwO8TS2gTXXlD0/zHXVTfN0oG1isboqv/9Iv31T5Hox/58xvahFtqrSd5yqeuim+bhzY0Ff9A8QxdVN8HbL5ptqHrRdP3NSXe5u1m3rbdfffOGs3NcLbVH95SF+aZ1Nt6apNHe0bp/52oJaOPPm/mLh87BunlgZnNXZ5wyv1Lm94pd7lDa/Uu/zE58Irnb98vzv3L+WY+VL/8oZX6l3e8Eq9yxteqXN5+3TQKV0yK/nd+nvAxL9raH/N9nwT1/4LJlXvQyoGHN9gUp/lZ1f5P9WkjvY4tP76I1OnrjSpLzSpFZOyHzP7+lqQOjVCk/o5k7KnR/1TpESTqr+gKE+XU03qRpP6QpNaMSl+n/NuH4IHKgYxo+L10HX+H918mpSHGRUMOAbX/m4/ZOrdeqJJ1ecy2SZ1MzOp+suyigEfMyoYcPzdpOrv8SouHMeMCgYcmtSKSdUfMx0/ZvpXEsYwo+L1lRkVXDiOGRUMzFvxY4YZFas6xb8tuHCEJrXtpNhk8fxJ1d9PjT1tZ5PFppPi3xYUYnjt+92h/5V1pkldaVIFhdCkVkzKfsz0i0TVqYpCaFI/Z1JHew0k3Y8ZEZELu4Pa93dTaZzKfG5HUSVxmVS6iYl8EzxuKRjIgBkVDGTAjAoGMmBGBQNL2LrnR/yYYUYFA4t0CxaILMCMCgYWsdcb1iwccjCjgoEMmFHBQAbMqGAgA2ZUMJABMyoYyIAZFQxkwIwKBjJgRgUDGTCjgoEF3h71VIYZFQyEdWVK+8c8xWJGBQML9M9jHvDTjxkVDGTAjAoGMmBGBQMZMKOCgQyYUcFABsyoYCADZlQwkAEzKhjIgBkVDCzxsn/EI/S/7VS36/ofM8E3LQhiRgUDsw53jXnIEywFPY4ZFQxkwIwKBjJgRgUDGTCjgoEMmFHBQAbMqGAgA2ZUMLBAeYz+mHtPZlQwEFafzZRJ1fV9j/ox0x51Pv2nzgfl516ZVLOMfyvMqGAgA2ZUMJABMyoYyIAZFQxkwIwKBjJgRgUDGTCjgoEMmFHBQAbMqGBgkcsd+saYUcHAIuXZDF9sihkVDDj6OeBl/4g+PSNTHCdmR4pFMaOCgc0xJU3KxZQWHCeoSWlS85jSsyZVns2wmHUOU3rOpOzZjK0h75/NTOrfZc2EVz391Y+Z7vMt8GyGKf2oTPGP7Z9viG1qUi62qUm52Oa/nxSbLDSp3tRDdDZZbDkp/m1B3bjrHTyn/rj8YZNF82OmW/Fj5rX55/0bglbUXTCJ3r478ILRHTZZ/INOTWGThSY1j00WmtQ8NlloUvPYZKFJmXK/OfFzhk0WT56ULVGxnzNjrxmxyeLZnbKj3yYOf2OTxbMnNYNNFprUPDZZaFLz2GShSc1jk8XzJzW5RIVNFv+gU8OH7DdssvgHkyqdmnqWJSIiIr/XR7/GqD6gGn1UJZWdscn6U/63d7N+uT6u+vOb0YOB/e7NXrA97g4v5dHn+fr66G9+h6NF+65GBalRQWpUkBoVlLlR/MJkgIs2oUYFqVFBalTQ5L6/7OojzVP76041akR5/tKVJh273fH2yJyjTjKiNwNctInJRnUv9kzm7XS2lkGJClKjgtSoIDUqSI0KUqOC1KggNSpIjbpTnr7w4gIfoEYNnXgVpqiHT16Pocz7FObQvGPGzWu9aIsPh/GnMJ2d8tgO6vwon+wDlKggNSpIjQpSo4LUqCA1KkiNClKjgtSoEfYeDeUR+mD9qho1ojTKDijrv4IaNWa/73aHw8GezVyoUUFqVJAaFaRGBalRQWpUkBoVpEbdOe0/+WwPpz6/xQH59GaAizYxtu928Jg9zDx15/6LCzVq6NS/XNXt7S0jiuurC2pUkBoVpEYFqVFBalSQGhWkRgWpUUFq1Jgj7+p/1tEsZnLf7cUF61Q92Q7UqBH2clVXnxPfzhehRgWtaxTvYNXiki3RmwEu2oQaFaRGBalRQf+uUbzh3kCtX4feDHDRJtSoIDUqSI0KGt13XoX5qMfl//WrMDSnZcP0ZqDWr0NvBrhoE2P7fnkVpn7sv+ipUUO8CmPqE+K/fBWG5rRsmN4M1Pp16M0AF21i0b6rUUHfsVFcY6vWL6VGBalRQWpUkBoVtGGjmN2AjTO9lg3TmwEbX4krHLBxrrFV65dSo4Im97086rQHne/tY3M1akRpT/8qTH/wXfWDGsUVDtj4pMl9P1+X8UfXwjC7ARtnei0bZnYDNr4SVzhg41xjy4a5wgEbnzS/73fUqCA1KkiNClKjgtSoIDUqSI0KUqOGTsfdmz0or2/qensCo0bdu5zupD4oZ5lH9ad7ncHsBl7Lv2B6LStndgOv9W2tFv+ZvPZy9Vxja+rav2z3+qfMazQkH/3zlhqr4vaOZHwex+wGbJzptWyY2Q3Y+Epc4YCNc40tG+YKB2x80vy+31GjgtSoIDUqSI0KUqOC1KggNSpIjRrxXh5o9keQNY/M+TyO2Q3YONNr2TCzG7DxlbjCARvnGls2zBUO2PikyX0v7amvwjTnIXTO2MjsBmyc6bVsmNkN2PhKXOGAjXONLRvmCgdsfBo9+KKe7uTwdnjh7yIiIiIiIiI/2nFf35j7tN/XN7irY/KFnXC3fLJFaMP3e5cB+wVUCVT99ZP6NK306VD6ZOcl5q89fm31O9GDFu9ZU7737FP0cIOfbWzfD83pm0uTroeWq08x6lOM+hSjPsWoTzHqU4z6FKM+xahPMan7xIEFLS7ZhPoUoz7FqE8x6lOM+hSjPsWoTzHT+87rLPv99fBD9WnER/8uf+2LUurTVycWL17fEbFQn766LPIs/9/ePLJLjN60uGQTk3ninTZLk67fesrTiL29KLUv/3W6Hy+W7Lv6FKM+xahPMepTjPoUoz7FqE8x6lOM+hSjPsWoTzHqU4z6FKM+xahPMerTEO/fXpcitOsR1KchO87+oD4NjO17CZO9jNDt913/AerTUMmT9an/ql2PUF95OKT8MPaGmja+lbE+na9rWu76xOeU6E2LSzYxuu/2vXY4lG+5+s3HoPoUpT7FqE8x6lOM+hSjPsWoTzHqU4z6FKM+xahPMepTjPoUoz7FqE8x6lOM+jTC3ommfrpRn0ZwnL361Jvad3tH+9qn9ve+s+fl+sfoTYtL/t7E6wjmsg6o+B7vk0VvWlyyicl9Z11ZoT4Vk/teX2jZl++728oy9SlGfYpRn2LUpxj1KUZ9ilGfYtSnGPUpRn2KUZ9i1KcY9SlGfYpRn2LUpzvHfT2P6e78sTt83n7xqz4NXc+M+3bWug2M7butR+hfk1KfLsb2vXyjWZ+6U/+r8dv33bd7vaUu6tjkz0Se7IQk+8KWuVxPt6w8DdXzLNdXg8+WKN2PF0v2XX2KUZ9i1KcY9SlGfYpRn2LUpxj1KUZ9ilGfYtSnGPUpRn2KUZ9i1KcY9WnEaf/J5/rJqE8jLsePH6+Hj6tPI06s2zh16pOZ2vfbeUmaPv3W9S2v7nlJOnvRhSHlaQznJWmWt6hPQev69J8RXLQletPikk2oTzHqU4z6FKM+xahPMepTzL/r03+/qvUr0ZsWl2xCfYpRn2LUpxj1KUZ9ilGfYtSnGPUpZnTfWd+y/zxtsL6F1gzYOL1p1fqV6E2LSzYxtu/X9S27/QbrNmjNgI3Tm1atX4netLhkE2P7flnfYgfcq0+9sX231w9qn+rvx/sPZt3rLbRmoOu6V3rT4l+sQm9aXLKB2fUtRX0N4S/Xt9CaARunN61avxK9aXHJJsb2va5vObyVdtVX73Q/XizZd/Up5jv2iSscqPULqU8x6lOM+hSjPsWoTzHqU4z6FKM+xahPMepTzIZ9YnYtG2ZyAzZOb1o2vBbX2LJhrnCg1i+kPsWoTzHqU8zkvh/7d6J52R0vv85Un8ZwXpLrr4CLn9QnrrFlw5Om9v1yXpLzvjQM6tNXo+cl6brXmT/MrmVnUGdyA1bO7FpleBV7SYRrbNlFXOGAlXONLRueML2+xRaVHfuvbn3i8wRm17JhJjdg48yuZcNrcY0tG+YKB2yca2zZ8KTJfV9+XhJm17JhJjdg48yuZcNrcY0tG+YKB2yca2zZ8CRn3wfUpxj1KUZ9ilGfYtSnGPUpRn2KUZ9i1KcY9SlGfYpRn2LUpxj1KUZ9ilGfhk52XLS9ktB92MkkrtSnodtx9ovWtzC7lg0zuQEbZ3YtG16La2zZMFc4YONcY8uGJ43tewlTv26jBKvb72+vS/W/sZ/C7Fo2zOQGbJzZtV7vzwYS+2Nb2+Ta77Z7+zO5bqPvU/+CCy8nKE/3zrzGwutS6lMxuu/2vXY4nO0t1+rLLlCfYtSnGPUpRn2KUZ9i1KcY9SlGfYpRn2LUpxj1KUZ9ilGfYtSnGPUpRn0awXlJzp863tdM7vvlvCS7lx+5voVrbNnwpKl9v5yXRH3qTe375bwk19+SF3/mMbuWDTO5ARtndi0bXotrbNkwVzhg41xjy4an0YN7nJekbZOMqecl+VSbRERERERERERERERERER+oJO9d+bb/sBfr191tyWeImHH+lasb6Tn7XqogfIkKxz6+6OuP1nn7ny2hbB2jN2hfG6WoV99cKiQ/DKxg5pOlzz1P+bOdQ365d6q3Htd3/f3YvKgM/nRorf7uR7w23+0JNkBrS+XLJ6UJ+mFb/fu8nPtzX7mnexvdl9Vf96Rspby9Ds96nZXnn4n5Um2pDzJlpQn2ZLyJFtSnmRLypNsSXlKhvXxHqrTUZ6SIS8eqtNRnpIhLx6q01GekiEvHqrTUZ6SIS8eqtNRnpIhLx6q01GekiEvHqrTUZ6SIS8eqtNRnpIhLx6q01l8u3e2MuHAceS73dsnC13uKE8rkRcP1eksvd1P9wtdmnMstpSnlciLh+p0lt7uLHTh0+m20OXOnz925kFZjLx4qE5n8f3T/EKXK90/rURePFSnszhPYwtd3r/+1FOeViIvHqrTWX671xUtdaGLPRS3hS5jD8mVp5XIi4fqdB51uytPK5EXD9XpKE/JkBcP1ekoT8mQFw/V6ShPyZAXD9XpKE/JkBcP1ekoT8mQFw/V6ShPyZAXD9XpKE/JkBcP1ekoT8mQFw/V6ShPyZAXD9XpKE/JkBcP1ekoT8mQFw/V6ShPyZAXD9XpKE/JkBcP1ekoT8mQFw/V6YRv99Nx/8lBmfUYqM/93o6iu301pDytRF48VKcTvd3fj/bxcljm7SwbU+fbUJ5WIi8eqtMJ3u7dcXDY+OGaottXQ8rTSuTFQ3U6wdt9uKyl935dhHf76qqubznYigd9iH94ja9vKaWTm/lXH4pgnk52urL7hSyXn37tVxe6f1qJvHioTid6ux/689+VONkyhLPdH53t9C18pcfjWyEvHqrTedTtrjytRF48VKejPCVDXjxUp6M8JUNePFSnozwlQ148VKejPCVDXjxUp6M8JUNePFSnozwlQ148VKejPCVDXjxUp6M8JUNePFSnozwlQ148VKejPCVDXjxUp6M8JUNePFSnozwlQ148VKejPCVDXjxUp6M8JUNePFSnozwlQ148VKez/HavC10ux/cebHXL5/HL4XTK01rkxUN1Ootv9/fB+49PLUdQntYiLx6q01l6u98tdJlaLqU8rUVePFSns/R2n1/ocmPrW1713/L/yIun+RdJ/lu0vuXqNL/Q5Ur3TyuRFw/V6Sy+3UcWunzo8fh2yIuH6nQedbsrTyuRFw/V6ShPyZAXD9XpKE/JkBcP1ekoT8mQFw/V6ShPyZAXD9XpKE/JkBcP1ekoT8mQFw/V6ShPyZAXD9XpKE/JkBcP1ekoT8mQFw/V6ShPyZAXD9XpKE/JkBcP1ekoT8mQFw/V6ShPyZAXD9XpKE/JkBcP1ekoT8mQFw/V6URv9+74YsfS3Q7sfdt/nMun7utbRVfK00rkxUN1OsHb/WRxag/zff/Ynfs8jS9IUJ5WIi8eqtMJ3u53yxBOlqWap8PefM2U8rQSefFQnU70/qkPEsuk+nurmqfe8fYltL5l5X/kxWO1GUXvR/olLIOFLE6e+EKWIS8eqtMJ3+7d5eeaLWupePxUfF0upTytRV48VKfzqNtdeVqJvHioTkd5Soa8eKhOR3lKhrx4qE5HeUqGvHioTkd5Soa8eKhOR3lKhrx4qE5HeUqGvHioTkd5Soa8eKhOR3lKhrx4qE5HeUqGvHioTkd5Soa8eKhOR3lKhrx4qE5HeUqGvHioTkd5Soa8eKhOR3lKhrx4qE5HeUqGvHioTmfx7T610OWO8rQSefFQnc7S231yocsd5Wkl8uKhOp2lt/vkQpc7dT2CLEdePFQn0i+QWHz/NL/Q5Ur3TyuRFw/V6SzO0/xClyvlaSXy4qE6neW3+8FOoPh1ocsd5Wkl8uKhOp1H3e7PzNN/YqhOjrx4qE5HeUqGvHioTkd5Soa8eKhOR3lKhrx4qE5HeUqGvHioTkd5Soa8eKhOR3lKhrx4qE7nF+bpvzFUPxt58VCdjvI0hepnIy8eqtNRnqZQ/WzkxUN1OsrTFKqfjbx4qE5HeZpC9bORFw/V6ShPU6h+NvLioTod5WkK1c9GXjxUp6M8TaH62ciLh+p0lKcpVD8befFQnU70dh8ua3m3w3yPduqWDOdvIS8eqpWnRwre7l+WtRT1LxnO30JePFQrT48UvN3vlrXsPvb7fU3Y9PlbnrW+pevIi8fOZmHl5MXTlz8defFQncii9S3DZS24nWXj355vg7x4qNb90yNFb/eRZS3K0yOQFw/V6YRv99v5W8p9lP3ls2Yrw/lbyIuHauXpkR51uytPK5EXD9VL9/3hlKcpVD8befFQrTw9AD3zUK08PZLyNIXqZyMvHqqVpwegZx6qladHUp6mUP1s5MVDtfL0APTMQ7Xy9EjK0xSqn428eKhWnh6AnnmoVp4eSXmaQvWzkRcP1crTA9AzD9XK0yOlzBM981CtPPmofjzlaQrVz8a+eahWniLomYdq5clH9eMpT1Oofjb2zUP1D8jT6fi5v55u43QufxlbkqA8rcS+eaj+9nk6vXOgZpOhwSoFKE8rsW8eqtPt+9LbvTsOFyYUXb8yYUh5Wol981D97fNEkAYLE45br2+hZx4r7Q7h9S110wU981hp2fjT/tS5LVzfEl/bUzcfX9uz4rZbe/6Wrwvx7pYpVLp/Wol981D97e+fyh1UCVSNk51v42gPzM96/LQd9s1D9ffPU5DytBL75qFaeYqgZx6qlScf1crTHKqVJx/VytMcqpUnH9XK0xyqlScf1crTHKqVJx/VytMcqpUnH9XK0xyqlScf1crTHKqVJx/VytMcqpUnH9XK0xyqlScf1crTHKqVJx/VytMcqpUnH9XK0xyqlScf1crTHKqVJx/VytMcqpUnH9WJ8vR1WUt9j+jDvnz1efyywkV5Wol981D9bfM0sqzl3dZJHUaOzTTK00rsm4fq75qnrh7YW9JzuYcq3vflw0PO30LPPFQrTz6q0+RpZFnLx20Z53sbs56tbzl0nZ0EZfl/9Mxzqadnnks5PfPYcpBnYnrsm4fqVPtut3cwT6f7ZS22GOFm8HOw0v3TSuybh+rvev90t6yl/q36sFh96PH4Ztg3D9XfNk9LKU8rsW8eqpWnCHrmoVp58lGtPM2hWnnyUa08zaFaefJRrTzNoVp58lGtPM2hWnnyUa08zaFaefJRrTzNoVp58lGtPM2hWnnyUa08zaFaefJRrTzNoVp58lGtPM2hWnnyUa08zaFaefJRrTzNoVp58lGtPM2hWnnyUa08zaFaefJRnTBP3fGlOY78/WwHAdeVLkPK00rsm4fqb5+nk8WpPfC3eBs5IZDytBL75qH62+eJhQnt+VtO14N/G8rTSuybh+rvf//0ZaHL++iKqc8/8iv9jwAEnfpztVzP2PL2+WWplMgCB1tfbndJb+U+6rw3n+9fH0CJiIiIiIiIiIiIiHw7u93/AwMDSD3hEMxGAAAAAElFTkSuQmCC;" vertex="1" parent="1">
          <mxGeometry x="392.9958992084704" y="85.9284183542352" width="280" height="207.51" as="geometry" />
        </mxCell>
        <mxCell id="kDJj-V9BMYjVGgZ6bgmU-4" value="" style="shape=image;verticalLabelPosition=bottom;labelBackgroundColor=default;verticalAlign=top;aspect=fixed;imageAspect=0;image=data:image/png,iVBORw0KGgoAAAANSUhEUgAAAlAAAAG2CAMAAAHwznjjAAAAAXNSR0IArs4c6QAAAARnQU1BAACxjwv8YQUAAABjUExURf////n5+WxsbFlZWcXFxfz8/IuLi42NjdfX12BgYPHx8enp6WRkZKurq7+/v1xcXHp6etvb26Ojo3l5efj4+MLCwvX19WhoaHh4eAAAAMAAANnZ2QCwUABwwDg4OCAgIAAAADsBa5QAAAAhdFJOU///////////////////////////////////////////AJ/B0CEAAAAJcEhZcwAAFxEAABcRAcom8z8AABjjSURBVHhe7d1hb+Kw0oZhJFBVIVop/dR9dU7P//+Xr8e5oQ7EzCQbvC59rq3arpkmzvAUCklg17E9X//WW17Sn/E/a5U//qMX9X+G70vbL+q4P3Y4q+yJF3XKvzibLOozf95kUSMtauQsati/pO9fQ/Ki+L7U9QZmD1vUfwzfT9xfVEr7zS/OuKj/GkZwf1FpOe8bLWqkRY3GRY0Xl/jxId/RD6VcO+RFMYK8KC4ubT+rrO9FlbWLF/WZ+77Jor52Q/GLU9YuXtRIixqVF5f48WP5i5NrQ7843NeMut7ArLdFvU3uccraxYsadl9bLWqkRY1qF18Wla5EaSxF3W6wNnHYbElPYEz7JtxFpcc4Qe6i4n75ot53R74LuL+oJVfgb2/7Iu6i0j0Of3J58qL4vnBgQUvkRfH9X/qXixrvyOd4i7r5xRkXVf5NcHZ/UekBzvVvztpFzfj1ixovn5Xu6XkMM8qlcw9xqk8OsKBbuXTdrK6Npf0sqiz9p4ua/OKUpcsXNVGWalFz0h0GvwC5tPzFeeUCFJdzZ5PN/eLk0k428FtZ+o8XVTwwKUuXLyotaNyVY8rS5YuaKEufaFFffF22qLnLRZDuvHbDds9abK98bqy9ytp/waTybUjGgOMHTMpSnm9EO5rUMc1q39ukvmlSNzSpFZOyp3ZS0PP9jDp1Q5N6pkm9795O9rWrSZ0faXU1qTNN6sbySeXHexkDPmaUMOD4u0nlh6IZF85jRgkDjmLt7EH4sE/1AxXH54Gy4ZUZJVw6jxklDNx36L1TJU3qRvNJ8bMJF864Wnu6Rc8HeXQ1qcGO90m6mtSZJnXjB0+KRSatJ2V3M8PlbmYYig8WmbAfLxvGnRIZeyTm8bPJ5Men6/j+mBwVXOimUyVN6sZPmFS6Pc9/VvU0KXsqYe65BBaZ/ItOnWlSNzSpFZNKv3b29HCmTt3QpH7EpPjZhELcTGp88N7ZpEREMrsvTn96jv/phP2FcFxwyHsTea926tP34V0isgR/tyQM9IAZJQz0gBklDPSAGSUMLPKg+xhmlDCwxHio4PaYUcLAEm9pTuNTQdtiRgkDPWBGCQM9YEYJAz1gRgkDPWBGCQM9YEYJAz1gRgkDPWBGCQM9YEYJAwucj1PaHDNKGAizQ9FfxhfG2xozShhYYHwc84BHWcwoYaAHzChhoAfMKGGgB8woYaAHzChhoAfMKGGgB8woYaAHzChhoAfMKGFgib09cljwAg9RzChhYAmb03g3M3DM3jaYUcLAXVenbuf7Gd3N/EPMKGGgB8woYaAHzChhoAfMKGFgc+xCvLe79RozShjYHFPqdlLsa024rIIZJQwscD4c9j6m1GZS+cTa9GH3NfW7meJIv9cDM0ru3y0xo4SBu6Z3M+Mxut4dMlNqdfXFMCVNysWUNCkXU9KkXExp7aT4YfvxDbHMZpPKf6M/+MaTH45PihOfkvE48jmvLHN6OLodRV7HjJLJj1cxiVF+3Odhmc06FcIyNSkXy9SkXCxTk5rFIhNNynzuTt+36RMsMmk8qfxoJt2kj49mpqciscikcjfD/UMFP5sUPz5ZwfQjzwfD13ig/C0WmTS/+upYZKJJ3cciE03qPhaZaFL3schEk8rsKbPZg7pYZNJ+UnbPN06K+wf4dzP2VFcdP5uUdzNV077Ym8ns5w5oZpFJ+05VschEk7qPRSaa1H0sMtGk7mORiSZl9tVdMywyaTwpO0XF7mfm9razyKR1p/a7fbqfsd0zN1hk0npSd7DIRJO6j0UmmtR9LDLRpO5jkcmWk+JnE+qqGt5O8bMJdTWXV0yYYJFJR5MSERGRX+2T40pO6eGo/lSoG9JDduvPfnzc/nY5wuTPb0YPJr527+P7uqRGve9eLvtHf/MrHC3adjUqSI0KUqOC1KignhvFEyYTXLQJNSpIjQpSo4Lq214+joEaNeP8OOZU7H/8w1EqPaI3E1y0iXpIyscxUKKC1KggNSpIjQpSo4LUqCA1KkiNClKjrrydd77wJ+eZGjV15NFLkv8qv/xpPj6EOXT4qXxnrm93zxZYaDYk+bVp7bXQ06Pi/f771RaVqCA1KkiNClKjgtSoIDUqSI0KUqOC1Kg55eMYqFEzrh/HGDVqzuVxjB7CmEXbrkYFqVFBalSQGhWkRgWtaxRnDJa4ZEv0ZoKLNvHvGsVZlhO5fh16M8FFm5jd9uP+y768fOWngr/+8oB8mlOyYXozkevXoTcTXLSJuW0/vp//KH+bnjarRk0dzw/zaFI+8M6oUUFqVJAaFaRGBalRQWpUkBoVpEYF/cRGscZSrl+qvu3l4xioUTMmj2OgRs24fhxj1KggNSpIjQpSo4LUqCA1KkiNClKjgu4XM7sJG2d6JRumNxM2vhIrnLBx1ljK9UvNbjuPXnYv9td5eC8Ms5uwcaZXsmF6M2HjK7HCCRtnjaVcv9Tctl8evQyXhzEjNWrq8ujFGpUE98IwuwkbZ3olG6Y3Eza+EiucsHHWWMr1S93f9itqVJAaFaRGBalRQWpUkBoVpEYFqVFzTrt3+3vzULzHsho14/LwhT/PjRo1Jz1wySd3qFHZ/W2/okYFqVFBalSQGhWkRgWpUUFqVJAaNXUcH72MX7RzYTS37bxM8Phlb+dg488w8CbVc5jdhP0A0ytZOb2ZsPH8wlnLPuzHWOFEWlht7YukNcy/0FZ69GJ7XvgSPZ2f2U3YONMr2TC9mbDxlVjhhI2zxlKuX+r+tl9Ro4LUqCA1KkiNClKjgtSoIDUq6IkaxQonbLzKbdT5r06jRtWd3/Uk470LK5jdhI0zvZINM7sJG1+JFU7YOGss2TArnLDxOnpQtS9euk1ERERERETk6Z32h/z15cVeg7rcVyylt/M+z0NqlJ46qDuNT0Pld95Vo+7guIPhOAarOPbgN6MHpZQoe7Iu3Trl26rLoQfLnmB/MnPbPrzZ85pjj1KXikTx9TdatO1qVJAaFaRGBalRQWpUkBoVpEYFqVFBPTeKww1KXLINNSpIjQpSo4LUqCA1KkiNClKjgurbfvoaXxni5Wc8w0lzSlyyjeq2266Y/LqS72qUqW677YqxSO1/yHPmNKfEJduobvvVrpjsz9AvmlPikm3cS9R5V8zlVWyUqBnjrhjrkX71zKJtV6OC1KggNSpIjQpSo4LUqCA1KkiNClKjgtSoIDUqSI0KUqOC1KggNSpIjZo62nN2u92HPR88OXNBjZqyZ4HtKHM1qjC37exX2Nl5VcN+/90qNWrqvKcqf8enrN+9MLOvw5nGD3bhJp/mGvVy2aFw3Si+9ojmlLhkG7Pbbr9uh0P6rcu/egwmalSQGhWkRgWpUUFqVJAaFaRGBalRQWpUkBoVpEYFqVFBalSQGhWkRgWpUUFq1Ax2xbzlp9ChRs04FbtiztSoGfY0cD4Xpnwq+O6bfP1bNKfEJRuo7FzIUqLKXTGZEjXjaldMpkbNKXbFnKlRQWpUkBoVpEYFqVFBalSQGhWkRgWpUUFqVJAaFbSqUbyp3QQXbYnmlLhkG2pUkBoV9O8axftJlnL9SjSnxCXbUKOCZrf9NL5ujT0VdfgqnpBSo6Y+drzG1m6LUzzozYSN05xSrl+J5pS4ZBtz2/79dLkadTG37ecdMOSq+NVbvBNmOLzSmwk7b4LmlPihVWhOiUs2UNkLY7v0LEjs1+PXMFGipg4fKUWH94Ol6mWSKL4uQm8mbJzmlHL9SjSnxCXbWLTtalSQGhWkRgWpUUFqVJAaFaRGBalRQWpUkBoVpEYFqVFBalTQD2wUK5zI9UupUUFqVFB924tdMWdq1IxyV8yZGjWj3BVzpkbNSO0pd8Vka15oa3YvjO3ZoDklfmQxWxzNKdkwK5w42AWLDAf37U7Ou2IyJWpGfrsTdsWcqVFBalSQGhWkRgWpUUFqVJAaFaRGBalRQWpUkBoVpEYFqVFBalTQ/WKmV7JhZjdh4zSnZMNrscaSDbPCiVy/lBoVpEYFzW47O2B2X4vOhWF6JRtmdhM2TnNKNrwWayzZMCucyPVLzW07O2COb/a8efwUD6ZXsmFmN2HjNKdkw2uxxpINs8KJXL/U3LZfdsCoUd/mtv2yA2b8pSt+9Ybhtf7B9Ep2AbObsD0bNKdk+zvWsMWxxpINs8KJ64m7H/apkqi8A4YWRc+FYXolG2Z2EzZOc0o2vBZrLNkwK5zI9UvNbTs7YHKjFpwLw/RKNszsJmyc5pRseC3WWLJhVjiR65e6v+1X1KggNSpIjQpSo4LUqCA1KkiNClKjgtSoIDUqSI0KUqOC1KggNSpIjQpSo2bwdicLzoVheiUbZnYTNk5zSja8Fmss2TArnMj1S1W3/er54EyNmpH6U+5hyNSoGeU+q7O758JU9oMMzG7C9o/QnBJLWswWxxpLNswKJ/ipZaqNurzdiRKV1bd9fLuT436/1+6q5P62X1GjgtSoIDUqSI0KUqOC1KggNSpIjQpSo4LUqCA1KkiNClKjgtSoIDUqSI2aYgdM/jJ8vyiSGnWNHTD5i07xwNy2swMmfxnsGeEz27lgz9jPY3ql4TD/9L6V05ySDQ+HYemH/diSnQu5fonazgV2wNgXe5Wt9BVK1BQ7YM77YdQoM7vt4w6Y8Yt2qY/ub/sVNSpIjQpSo4LUqCA1KkiNClKjgtSoIDUqSI0KUqOC1KggNSroiRrFGks2XKdGXdhwnduoPS+6ZdSourfdc77aD2ss2XCd1yiePx+pUXXskRn9uYvplWyY2U3YONMr2fBarLFkw6xwwsZZY8mG76AHNSlR40lWcl9+A3oREREREREREREREREREXlyx/3bbve+t5MaR+/7TztzbyhOBhUJO6U8WYrO8fn43L0oULLWYbxt4ssuhykH6rA3M6H65AAi+WVihzkdxyQNHOKab69yoEan72/P3GPR5ClFr/eXz+/PUKDkVvh6H853be/nA/H5ozwpY3amQP1OD7veFajfSYGSTSlQsikFSjalQMmmFCjZlAIlm1KgOsMJ9B6q+6NAdYbAeKjujwLVGQLjobo/ClRnCIyH6v4oUJ0hMB6q+6NAdYbAeKjujwLVGQLjobo/ClRnCIyH6v4oUJ0hMB6q+7P8eh/s+N9D8XK37/vi2M0LBWodAuOhuj+Lr/dj7fyXKwrUOgTGQ3V/Fl/v1+e/2IHA84Gy9y6UpQiMh+r+LL+FOp//kr+Mt1e6hdoOgfFQ3Z/l1/vM+S8fCtRmCIyH6v6suN6/z3/5Ku72rilQ6xAYD9X9edj1rkCtQ2A8VPdHgeoMgfFQ3R8FqjMExkN1fxSozhAYD9X9UaA6Q2A8VPdHgeoMgfFQ3R8FqjMExkN1fxSozhAYD9X9UaA6Q2A8VPdHgeoMgfFQ3R8FqjMExkN1fxSozhAYD9X9UaA6Q2A8VPdHgeoMgfFQ3R8FqjMExkN1f8LX+/G0/zof9rvbfe73X6dj+uaQvtnv9/btlAK1DoHxUN2f6PX+cbLPk+M0D3aUXfWtORSodQiMh+r+BK/34VQeSZ4N9nZCY6rmKFDrEBgP1f0JXu/X57qY0/eZVMVZemf5rJeDnQehT/FPr+GzXl7vLOVffgoGKr+7WXk2nvm+A5zcFY50C7UOgfFQ3Z/o9X4Y3y8v5clOTTjZLdKn/e/FvnvRH+WbITAeqvvzsOtdgVqHwHio7o8C1RkC46G6PwpUZwiMh+r+KFCdITAeqvujQHWGwHio7o8C1RkC46G6PwpUZwiMh+r+KFCdITAeqvujQHWGwHio7o8C1RkC46G6PwpUZwiMh+r+KFCdITAeqvujQHWGwHio7o8C1RkC46G6PwpUZwiMh+r+KFCdITAeqvuz4nrP57+cj/k9vsyf9KJArURgPFT3Z/n1/nH7OuXTI4NHCtQ6BMZDdX8WX+/V81+uKFDrEBgP1f1ZfL3PnP+S7gPnbqHsHA79W/qPwHjKH+nlX7Y4UJXzX27+itIt1DoExkN1f5Zf79PzX/IN1Yv+htoMgfFQ3Z+HXe8K1DoExkN1fxSozhAYD9X9UaA6Q2A8VPdHgeoMgfFQ3R8FqjMExkN1fxSozhAYD9X9UaA6Q2A8VPdHgeoMgfFQ3R8FqjMExkN1fxSozhAYD9X9UaA6Q2A8VPfnGQL1nxiqO0dgPFT3R4HqDIHxUN2fXxio/8ZQ3RqB8VDdHwWqhurWCIyH6v4oUDVUt0ZgPFT3J3q9D6c3O7aOk10+XuxI8vQpfZ4548UoUOsQGA/V/Qle70fL09WBv++WpR7emoPAeKhWoB4qeL3PnZqQDy4f9mYmVArUOgTGQ3V/ordQY5KKk6c+yhSd7N5vqs1ZL+aVwHjO5QTGk6rLNbX6R2A85Y/08i+L3pCMJ3ZeTu98/8p3gTjOBopvHo/AeKjWLdRDha/3dN/2dbIbpfd0K/WS7+jsr/J8l3f71kEK1FoExkN1fx52vStQ6xAYD9X9UaBqqG6NwHio7o8CVUN1awTGQ3V/FKgaqlsjMB6q+6NA1VDdGoHxUN0fBaqG6tYIjIfq/ihQNVS3RmA8VPdHgaqhujUC46G6PwpUDdWtERgP1f1RoGqobo3AeKjujwJVQ3VrBMZDdX8UqBqqWyMwHqr7o0DVUN0agfFQvXTbH0+BqqG6NQLjoVqBegSa5qFagXooBaqG6tYIjIfqZwhU7fyXKwrUOgTGQ/UTBKp6/ssVBWodAuOh+gkCNXP+S77NupZPUng9DMOjP16jJym8gsB4rPRqVQ/9yHN7fSUwnrF4GNg2j51E0MCCkxQunPNfLnQLtQ6B8VD9DHd5d89/+aZArUNgPFQ/QaDs3m72/JcrCtQ6BMZD9VMEKkaBWofAeKhWoB6BpnmoVqAeSoGqobo1AuOhWoF6BJrmoVqBeigFqobq1giMh2oF6hFomodqBeqhFKgaqlsjMB6qFahHoGkeqhWoh1KgaqhujcB4qFagHoGmeahWoB5KgaqhujUC46FagXoEmuahWoF6KAWqhurWCIyHagUqhKZ5qFagfFQ3oEDVUN0a2+ahWoEKoWkeqhUoH9UNRK/36bkudpDd+VDgB7zXC03zUK1A+ahuIHi9357rwkHlD3mvF5rmoVqB8lHdQPB6vz3XhW/vvNfL5USOhYbomR/D63i2CE3zsPglZ70k5YkpD/1gfWybJ9emH2LbPLn8sWwb4me93J7rUnxbea8XvlmBpnmo1i2Uj+oGotf71bkukxurzd/rhaZ5qFagfFQ3EL7e833b+VyX8Y5u/3lMubKvY8mEArUO2+ah+gcHaikFah22zUO1AhVC0zxUK1A+qhtQoGqobo1t81CtQIXQNA/VCpSP6gYUqBqqW2PbPFQrUCE0zUO1AuWjugEFqobq1tg2D9UKVAhN81CtQPmobkCBqqG6NbbNQ7UCFULTPFQrUD6qG1CgaqhujW3zUK1AhdA0D9UKlI/qBhSoGqpbY9s8VCtQITTNQ7UC5aO6AQWqhurW2DYP1U8RqOPpa385W8FeZ/qrOHbzQoFah23zUP0EgTp+cOzmeLbLcf82ORj4QoFah23zUP0EgRpOOT7FEcBDcXP1TYFah23zUP0Egbqc7XIJVHl0+Tc766U8qSP+seDMj/FUEZrmybUJgfFQ3fq0F7bNk2uXn/HzWLYVy+/y9rdn6OkWajtsm4fqJ7iFSjdIKVE5T+/jX+O1Wyi+WYGmeahWoHxUN/A31/tdCtQ6bJuHagUqhKZ5qFagfFQ3oEDVUN0a2+ahWoEKoWkeqhUoH9UNKFA1VLfGtnmoVqBCaJqHagXKR3UDClQN1a2xbR6qFagQmuahWoHyUd2AAlVDdWtsm4dqBSqEpnmoVqB8VDegQNVQ3Rrb5qFagQqhaR6qFSgf1Q0oUDVUt8a2eahWoEJomodqBcpHdQMKVA3VrbFtHqoVqBCa5qFagfJR3UD4ep+e63L532Gfvvk63b4/hwK1DtvmofrnBopzXU75P+f/5ZeV1ltzbIpt81D9YwM1nPKNE4ePX/5nr1iuQG2KbfNQ/WMDxXHjs1/SDdbMaQqc9fK65h9N87zae4ukcprmOS+ewHjO5XktDbA2ts1j7/Ni/9g2Dwt/6L+8DfH3einPdbk58+V82mdBt1DrsG0eqn/sLVS6NSrPdRku/3ux26bP/VhUUqDWYds8VP/cQC2mQK3DtnmoVqBCaJqHagXKR3UDClQN1a2xbR6qFagQmuahWoHyUd2AAlVDdWtsm4dqBSqEpnmoVqB8VDegQNVQ3Rrb5qFagQqhaR6qFSgf1Q0oUDVUt8a2eahWoEJomodqBcpHdQMKVA3VrbFtHqoVqBCa5qFagfJR3YACVUN1a2ybh2oFKoSmeahWoHxUN6BA1VDdGtvmobq/bVegaqhujW3zUP18gcqH2h1mDwHmmxVomodqBcpHdf+BOp6uDga+UKDWYds8VD9doK5PV/imQK3Dtnmofr5bqDFJM29I9fVHfqX/EYBVjrsXTvnM/xX5a8M+ufkLSkRERERERERERETkR9vt/h+2n+IInAqTTAAAAABJRU5ErkJggg==;" vertex="1" parent="1">
          <mxGeometry x="677.0047314453125" y="86.27631309107738" width="280" height="207.16" as="geometry" />
        </mxCell>
        <mxCell id="kDJj-V9BMYjVGgZ6bgmU-6" value="" style="shape=image;verticalLabelPosition=bottom;labelBackgroundColor=default;verticalAlign=top;aspect=fixed;imageAspect=0;image=data:image/png,iVBORw0KGgoAAAANSUhEUgAAAk8AAAG2CAMAAAEma6KGAAAAAXNSR0IArs4c6QAAAARnQU1BAACxjwv8YQUAAABjUExURf////n5+WxsbFlZWcXFxdfX12BgYPHx8enp6WRkZKurq7+/v1xcXNvb26Ojo3l5efj4+Pz8/IuLi3h4eAAAAI2NjXp6esLCwvX19WhoaMAAANnZ2QCwUABwwDg4OCAgIAAAAPRDXagAAAAhdFJOU///////////////////////////////////////////AJ/B0CEAAAAJcEhZcwAAFxEAABcRAcom8z8AABoVSURBVHhe7d3dcuKwsoZhqkyKIinngMzRqrWy7/8utyS/gAQW3XZsR5DvmVR+7I4sNT2O4wixa1jHxx879uHdv+HzufJvf+Gm3nddSNb2vfpPxOe5v9LU++H6ucVoKhb7Qk0lr92Uv9ofN/W+v35uetzU4Bma+m/E5wWjqZET8tym0o+JpZoKxpr6X8QWPGlTd9U+v6lghaaGWKOpYXeu6aa6j+vn7fQqeemmunhmeBuk2LcU+5aa6vf99a3Yne9pe4BRc00N1V5Ney7fzaZB0wNMXqapfPffaSq7ZqjForY775VsrVvu5sBud+KjGJbN+ZFPbcP/wUU8aVNffLRZTX34q91qaoJnbGrSaeFxU91xwv+dx01N8ptNDT8yx5hN3eZqdlNduimTm93UvaGp/Jrg7BmbSncNS3ObGrFIU0Oo1dSw35CH/nZT73xsq1dXeeirNBWqPbzlv6T2KXT4JfXtegMgvOX7s839yP+YdgZYyEMbaKrP0r5PoZe0Z/K0s2lAK7kU2s4AkYf+alP9cX+92M5DrabG9mesUGt/xgq19mesUGv/Lt7AGlih1v6sKfnrjrv92FVWK373hlbl6OrUneY7lWo8ziJZulPpbJuwwbBJpuhRwAaDOvU6nerCz/dDuk30L1yXxl8JlnlHj4Jic/WdHj51ykKPAjYY8qMPVy3prtw/fnlbBj0KYilbyj/HZ/Tw3ZneqfRbTMIGGz0K2GBov1PH+Btb+l1Zmbrzs06l348Tdo6jRwEbDK13qguXCN3uezh5pi2j6FGwSaZClYe34dIlbRhFj4JffvhoMvhxp/jegJ0j1KlZnYpT2Ie/VDfUqVjjw98TG+rUlTp1p/VOvYdy6oZibyhToc5Dv8YuXWgy2LxTGXXqTvudeg9lPvx5uqFO7S9/VmmoU1fq1J3mO/URTpz8YbmZTnX9PpzRt7x04XsDAnFz9DN1KiAQT9Kpsb/N0GTwm5kSEdkd97t++NnXkr7FCRyaYyQiLUt3y06NnTy73X53Oq3yY4Zr4Xg1PFH6m0x6tzi6NKNTK6JL6pSJLqlTJrqkTpno0sxOhdPU3RPsFkCXZnbqMsl6bKbc/Hd0Kc5UehB1fTf0Ae9pUYzl0SUVuokuqVMmuqROmejSq3Qq/rGPeftLo0szOhWnWPNHkHBGX2fyaTxhO9CJIHz6setWuUinSyp0E11Sp0x0ab1O8deegA0OdEmdMtGlmZ1yXHjSo4ANDnRpZqccP2ToUcAGB7o0r1NduGi3bgXRo4ANDnTpDxc6fwAO2FlBl9SpgJ0VdEmdCthZQZfmdCqcDLrdfsopgR4F7KygSzM6lZ6fYl+j06Ngm0716cfMMCW2ih4FKvQRtBlbpUfBrE7xvQH75qNNdcpEm+qUiTZ/pVPv3e5z9OxJm7+TqdCj0XMnbf5Op2q3N2jzdzpVQ5vqlIk21SkTbapTJtrcvlPxrNlV7ibQ5vadSresz7MXb+5Y0+Z//vM2rHqfvA3L3yXFqw+Ub9Vvv4nL3lIXkkc3q2lz+0w9QpvqlIk21SkTbapTJtr8nU6d4ooJI2jzdzoVzqWPz+j9sFRpUpzRy2VNc/m3v2Xfzu4xqQtnn118itgI2vydTNXQpjplok11ykSb6pSJNrfvVLw7vPto7Bo93Ucf79NKneJ7A+JGxD839ON/caDNX+jUA7SpTploU50y0aY6lWvxlJBOoXdo8/c6VTmpi4iIyN/2Pvw5ZPSVhCQTLjv74Ql+1wvQf38ZObjTv4cMfcSX1swSxce/aNLYlSgnJcpJiXJSopyUKCclykmJKh13u494rfkers2LK3MlqhQStQ+JCh/SnK604ncSX4OqVdzVzbFnGaNF0nX9UFOhorrsFnrLFUVycuxZxqSxK1FOSpSTEuWkRDkpUU5K1JgjK3OdrhPklagR4TKzj5nqhqvORIkaEX+PCb++dMFlfoQS5aREOSlRTkqUkxLlpEQ5KVFOStQNLsq778Nu/53duVOiSueL8jj/4GnumZOcHHuWUUkUz0BJv72cLqttKFFOSpSTEuWkRDkpUU5KlNOsRPFknAK7lkRycuxZhhLlVB37IU523e0+fzzZldwU2LUkkpNjzzKqYw/pGe6Zfw9fR2mSxrByhB+5KSy6FP6A5OTY83PVSRpRuCjnrwrZbBY+TkJuCuxaEsnJsWcZk8auRDkpUU6LJorn7RbSN8xDcnLsWYYS5aREOSlRTkqU09jY43Mah7ua3QK3gslNIW4nN4X0DfOQnBx7ljE29vNFOenKfoXp0xKb05Cbwlu4NCc3hR9csZOcHHt+rnZlnp7TuP/Yh8qKV+cr/a5HbgrpG+YhOTn2LGPS2B8H071c3ExuCnE7uSnE7TNxxFzczAELKX4qJcpJiXJSopyUKCclykmJcqqOPU5AuFtJg4/j6F4ubqZ3hbid3BTi9pk4Yi5u5oCFFD/Vo0QNS45c8/T4iY1j18Zha7aa8lW83CU3hfoKzQ/F5jhiLm7mgIXp9/37ff2eeXp2435/6tzzo+heLm6md4W4ndwU4vaZOGIubuaAhRQ/1eOx31CinJQoJyXKSYlyUqKclCgnJap0uSgPV1AT7pnTvVzcTO8KcTu5KcTtM3HEXNzMAQspfqpKooZ75sOlpneSBt3Lxc30rhC3k5tC3D4TR8zFzRywkOKnGh37cFF+CBflhwlLjtC9XNxM7wpxO7kpxO0zccRc3MwBCyl+qsdjv6FEOSlRTkqUkxLlpEQ5KVFjzgtD5LOC+TiO7uXiZnpXiNvJTSFun4kj5uJmDlhI8VNVx35z1ZkoUSPi7zHp1xclKnk89htKlJMS5aREOSlRTkqUkxLlpESVeE5j+tBfVocIlKhSyFK8KE8f+ni38+zfw9kNdC8Xp0PQu0IMJzeFsLnf91PfYmvjkzT6qUcfFyeCjCWK5zSen9r4kvfMOWAhbq96PPYbSpSTEuWkRDkpUU5KlJMS5aRE1V2f5BgoUXVcpQ947cIKupeLm+ldIW6nd4W4fSaOmIubOWAhbueAhbi9jhzU7D/T730iIiIiIiIif8HwVIX8qcQy4iu96Y6B4TD8gVh5MsSFDoYcvTtv1r04cnDr8H6ppfjfL7Fu7L2y6ti/4zzgbvfxJC9wsrYpY1eefJQnH+XJR3nyUZ58lCcf5clHefJRnnyUJx/lyUd58lGefJSn0nG3T/fmPr7K+5nKU+l8i+6reKkA5enG+ZbvKT4ryL906+9iYmaBXYsYGfuBPL0Pz57iffBwLeBfRmoK7FrEWI3wJ6lzhq554mOLSE2BXYsYG3tajW34nxf+33mfjfe7SE2BXYuYMnblyUd58lGefJQnH+XJR3nyUZ58lCcf5clHefJRnnyUJx/laUzHGq3XpVqVpxHnm1DHy+0n5WnE+abmoVeeotrYzzfJu+vtTO777lt8N7a82H+q0TPeVetp+KNL32V/SFA9jeiGedHZ7XHlyUl58lGefJQnH+XJR3nyUZ58lCcf5clHefJRnnyUJx/lyUd58lGeSofh1vhXmlbXfT/F881JTYFdixgb+2V+5n64A3WmPBXOS4ak98rTYGTs1yVDjvGlNz6v64YMt4qbRGoKvHrGj8Vb5GP1dLNkyPB/MFA9ldKt8e+4ZEj/NOuGkJoCuxYxZezKk4/y5KM8+ShPPsqTj/Lkozz5KE8+ypPPvDzx0ik59iyJ1BTYtQjlyUd58lGefJQnn+rYj7uPeIPufXf84X0VcpNjz5JITYFdi6iO/XKz7uPyesLK0z1eeHl36kLCEOdFcyvUre/JTW5yKzZSU2DXj8Xb3bU8nefZB5cJv6qnEV+X16VWnoLq2Fk85OfrhpCbHHuWRGoK7FrElLErTz7Kk4/y5LNonnil1UKKn4fUFNi1COXJR3nyUZ58lCcf5clHefJRnnyUJx/lyWd07MO86NP3V/j0x/OiyU0ubiY1hRQ/D6kpsGsRY2MP6RnmZL4fzvfqEuWpcL2VqTxdjIz9Oi86vc/nRc+4Qf5GbnJv/f6N1BT4jjlITYFdCxi9P36ZF00t/XBeNLnJxc2kppDi5yE1BXYtYmzszItOafr5vGhyk4ubSU0hxc9DagrsWsSUsStPPo9j6Vwhbic3ubiZ1BTi9pk4YCFu54iF9A0TKU8+ypOP8uSjPPkoTz7Kk4/y5KM8+ShPPsqTj/Lkozz51MZ+YF706XwXKlCeRryf52d+OO8/0blC3E7ncnEzqSnE7TNxwELczhEL6Rsmqo395uZvojzdu/wx4fMyzf7x6ymO36EO2+lcLsaTmkJqaB4OWAibx46eDj9VtUb441Q6SUH1NOIyL7pzzh+nc4W4nc7l4mZSU4jbZ+KAhbidIxbSN0z0eOwl5clHefJRnnyUJx/lyUd58lGefJQnH+XJR3nyUZ58lCcf5clHeSqcb43vO9Z6OFOeSudb4+c1Mc6Up8Ll1njK0/VlAo11Q+hcIW6nc7m4mdQUhiU6Jr/F5jhgITQ3et83znO+bePx29vovOg8T4HuZwZjYz8/b0N5uhob+/XW+Fd4d5lmrzw5KU8+ypOP8uSjPPkoTz7Kk4/y5KM8+ShPPsqTj/Lkozz5KE9jhsVDdqfh5kqkPI3gJtSRm1CR8nTvclNzrzxFtbEXN8nxr493lmvoXCHeTqdzuRhOagqpnXk4YCFsrtwfn+rButrnxUP0/y6pjp3FQ5SnweOxl5QnH+XJR3nyUZ58lCcf5clHefJRnnyUJx/lyUd58lGefJQnH+WpwLzo4UO6BwXlqcQtuvRBeRqMjJ1bvsOHm3nR3AcdQ+cKlfUwYjipKcTtNzOSPW/x2zhgoT4vetpq1Y/nRV/+kvCK8305YCGGV42NnT9J8UF5isbGzrzo/jt+eM150RywEMOrHo+9pDz5KE8+ypOP8uSjPPkoTz7Kk4/y5KM8+ShPPsqTj/Lkozw9wPToSHmqO9+EipSnqstNzUh5qrourx38e4jOFeJ2OpeLm+lcIW6fiQMW4naOWAibOWAhhteRg4rL9Gh5LE2PFhERERERERERERERERGR13To3ne7j24/fNV3+gux/MQxlFMsqKGOVE/yI/vhzMSH8DEaqakvpgrJHzNx5tdhKKQ+vs7bxfHytOELa9KZvKbJj/tpeN759RnVgepJMP1x788/4eJFefqiqC2onv6mtR531dPfpHqSJameZEmqJ1mS6kmWpHqSJameZEmqJ1mS6kmWpHqSJameZEmqJ1mS6kmW5H3cD8eu+2aSb/LVxUkqcT7dd9cdhm0Z1dPf5HzcP4/x/XXW0+G4P8V6qs73VT39Tb7HvT8yK5MzVH/sd6me9qqnZbE8o4Xo9vged6aLn2f57o/hB1yqp+SzmPw7+PdveI1/mYZ6sRDdHl89pSdJXc5G6UkI4arpUkbl7N9E56d5qBcL0e1xPu774Vl3oZw+zlWUzk+n+MVJ1+OLoV4sRLdnrcdd9TQP9WIhuj2qp7ZQLxai26N6agv1YiG6PaqntlAvFqLbo3pqC/ViIbo9qqe2UC8WotujemoL9WIhuj2qp7ZQLxai26N6agv1YiG6PaqntlAvFqLbo3pqC/ViIbo9qqe2UC8WotujemoL9WIhuj2qp7ZQLxai2zP5ce/jzJV9NoPuo/v65NOM6mke6sVCdHumPu6Hcr3o3e7zK5upeaV6mod6sRDdnqmP+2Xm7zCT/BBrSfW0HOrFQnR7Jp+finoazlZfo/XU9/s0o3h4H+kz67M37/zxtxQ+/QArf7Z3zh+/OoysF63z03KoFwvR7Zn+uKdnI8Srp4/z8ztVT8uhXixEt2etx131NA/1YiG6PaqntlAvFqLbo3pqC/ViIbo9qqe2UC8WotujemoL9WIhuj2qp7ZQLxai26N6agv1YiG6PaqntlAvFqLbo3pqC/ViIbo9qqe2UC8WotujemoL9WIhuj2qp7ZQLxai26N6agv1YiG6PaqntlAvFqLb43zc+zhx7jJr/DPOojvGVQ77kaUOE9XTPNSLhej2+B73u1njQfpC648vjHqxEN0e3+POrHE+xBdH6M4r/p5n191gveh937/JBNSLhehm9MMEZP960fmscRwv0zKvn13o/DQP9WIhuj3OehqZNa56WgP1YiG6Pd7HPfxg+z6mWePhHNWHn3Hfqbaun91QPc1DvViIbs9aj7vqaR7qxUJ0e1RPbaFeLES3R/XUFurFQnR7VE9toV4sRLdH9dQW6sVCdHtUT22hXixEt0f11BbqxUJ0e1RPbaFeLES3R/XUFurFQnR7XqCe/utDdOOoFwvR7VE9tYV6sRDdHtVTW6gXC9HtUT21hXqxEN2e6Y/74fh9faX8wym+bv7InF/V0zzUi4Xo9kx93A+fzITKaqiYBgzV0zzUi4Xo9kx93PtjOfM3SCvc31I9zUO9WIhuz9TH/Wb98eQ4en7q0+zxuIxwnF284j/qxZImOTf/j3qxZN/RyL8oPNiTf94NJ6PyR1w5DzjR+Wke6sVCdHsmP+77WFCpnOJ60cd4YX7S9dNiqBcL0e1Z63FXPc1DvViIbo/qqS3Ui4Xo9qie2kK9WIhuz9+rp/85Eb4x6sVCdHtUTzWEb4x6sRDdHtVTDeEbo14sRLdH9VRD+MaoFwvR7VE91RC+MerFQnR7VE81hG+MerEQ3R7VUw3hG6NeLES3R/VUQ/jGqBcL0e1RPdUQvjHqxUJ0e1RPNYRvjHqxEN0e1VMN4RujXixEt8f5uKc5mNf1ok9xS1zksIX1oqkXC9Gqp1X5Hvfx9aJDKe1Hpj4lqqd5qBcL0e3xPe6360UHw0TNuH5mZb1oPlkf9WIhWvW0Kuf56W7W+GdeRKPr+6YZxdHbym/Ui+U8yZlyMb2l1rf+R71Y8m9p5F9chdy9/vjNetEf3+cn4EWH310vmnqxEK3z06q8j3t6IYR4SorrRZ/ST7l4QZ42//J60dSLhWjV06rWetxVT/NQLxai29NiPZEzC9F/up4Ym4nw9ameagjfGGOzEK168iBnFqJVTw6Er0/1VEP4xhibhWjVkwc5sxCtenIgfH2qpxrCN8bYLESrnjzImYVo1ZMD4etTPdUQvjHGZiFa9eRBzixEq54cCF+f6qmG8I0xNgvRqicPcmYhWvXkQPj6VE81hG+MsVmIfoV6ul8v+n62iuppLsZmIfoF6on1oo/pi8HnyCRy1dM8jM1C9PPXU59WzMxnasZ64pOM6mkexmYh+vnraWQm+Wn89RHOy0VPfXtzr5kMUmYh+o1yMcXYm66t+pY6N23s7rnO/327HmFF7vm+V/3tM13iKr8jdH6ah7FZiH7+89Ou/87Xi06rR49RPc3D2CxEv0A9Oame5mFsFqJVTx7kzEK06smB8PWpnmoI3xhjsxCtevIgZxaiVU8OhK9P9VRD+MYYm4Vo1ZMHObMQrXpyIHx9qqcawjfG2CxEq548yJmFaNWTA+HrUz3VEL4xxmYhWvXkQc4sRKueHAhfn+qphvCNMTYL0aonD3JmIVr15ED4+lRPNYRvjLFZiFY9eZAzC9GqJwfC1+d93ItZ42neOPPqwubvo+b7LoWxWYh+2noqZ40funcm/K6yXjQ5sxCtenIgfH2+x/1+1jif9qqnZTE2C9HPWk/3s8bzCeSf2Q/CM+aPZ+sJ+/+RM8tbmhTdu+eP0zzlYhqiN0P3GJslxYY3xmZK8RxpPeEIvnoaFq/PXx+heILL6evuAkrnp3kYm4XoZz0/hdNRPms8bUgfvuL7Lz1fajGMzUL009bTZKqneRibhWjVkwc5sxCtenIgfH2qpxrCN8bYLESrnjzImYVo1ZMD4etTPdUQvjHGZiFa9eRBzixEq54cCF+f6qmG8I0xNgvRqicPcmYhWvXkQPj6VE81hG+MsVmIVj15kDML0aonB8LXp3qqIXxjjM1CtOrJg5xZiFY9ORC+PtVTDeEbY2wWolVPHuTMQrTqyYHw9U1+3Ps4c2V/mUEXX+A8mwl1oXqah7FZiH7+ejrcrsdazqy7UD3Nw9gsRD9/Pd3P/K3VU5r/yULC05AzS5y/Go9Ayiw0Pmm96GhYzXntNw42Zb3o+G2MzZTaXlvs0OTz01A9WRHlM8mvdH6ah7FZiH7689NhdxqeOZXeJ/p5tyTGZiH6+X/exfoJ4tXTRyik9EXX5a/mMlA9zcPYLES/Qj35qJ7mYWwWolVPHuTMQrTqyYHw9ameagjfGGOzEK168iBnFqJVTw6Er0/1VEP4xhibhWjVkwc5sxCtenIgfH2qpxrCN8bYLESrnjzImYVo1ZMD4etTPdUQvjHGZiFa9eRBzixEq54cCF+f6qmG8I0xNgvRqicPcmYhWvXkQPj6VE81hG+MsVmIft56KteLvnyl9aIXxtgsRD9tPZXrRfPV1yHUk9b3XRRjsxD9rPV0WS96+HBdPVrrRS+MsVmInlpPDM1E+Ay+x72cNX47h/zBetFpmeKp/8iZJa6XHBdNJmWWc+ukzHSO3wiHY2yW0K00fMZmonWGZiJ80r80hlnrRd+tHq31ohfD2CxEP+v5KZyL8vWi03Pw0leneGbSetHLYWwWop+2niZTPc3D2CxEq548yJmFaNWTA+EMzUT4DKqnGsI3xtgsRKuePMiZhWjVkwPhDM1E+AyqpxrCN8bYLESrnjzImYVo1ZMD4QzNRPgMqqcawjfG2CxEq548yJmFaNWTA+EMzUT4DKqnGsI3xtgsRKuePMiZhWjVkwPhDM1E+AyqpxrCN8bYLESrnjzImYVo1ZMD4QzNRPgMqqcawjfG2CxEq548yJmFaNWTA+EMzUT4DD+sp5vVo69UT/MwNgvRr1ZP96tHn6me5mFsFqJfrZ5uZ/5eqZ7mYWwWol/u/DQU0sgSv9//5E/6PwpgjpHVo0V+4rJ6tIiIiIiIiIiIiIjI09vt/h/n7cNBrst2hwAAAABJRU5ErkJggg==;" vertex="1" parent="1">
          <mxGeometry x="971.9953461657076" y="86.27683940686677" width="280" height="207.51" as="geometry" />
        </mxCell>
      </root>
    </mxGraphModel>
  </diagram>
</mxfile>
